<?xml version="1.0" encoding="UTF-8" standalone="no"?>
<svg
   xmlns:dc="http://purl.org/dc/elements/1.1/"
   xmlns:cc="http://creativecommons.org/ns#"
   xmlns:rdf="http://www.w3.org/1999/02/22-rdf-syntax-ns#"
   xmlns:svg="http://www.w3.org/2000/svg"
   xmlns="http://www.w3.org/2000/svg"
   xmlns:sodipodi="http://sodipodi.sourceforge.net/DTD/sodipodi-0.dtd"
   xmlns:inkscape="http://www.inkscape.org/namespaces/inkscape"
   width="2500"
   height="2500"
   viewBox="0 0 192.756 192.756"
   version="1.1"
   id="svg3807"
   sodipodi:docname="wamp2.svg"
   inkscape:version="0.92.4 (5da689c313, 2019-01-14)">
  <metadata
     id="metadata3813">
    <rdf:RDF>
      <cc:Work
         rdf:about="">
        <dc:format>image/svg+xml</dc:format>
        <dc:type
           rdf:resource="http://purl.org/dc/dcmitype/StillImage" />
        <dc:title></dc:title>
      </cc:Work>
    </rdf:RDF>
  </metadata>
  <defs
     id="defs3811" />
  <sodipodi:namedview
     pagecolor="#ffffff"
     bordercolor="#666666"
     borderopacity="1"
     objecttolerance="10"
     gridtolerance="10"
     guidetolerance="10"
     inkscape:pageopacity="0"
     inkscape:pageshadow="2"
     inkscape:window-width="1299"
     inkscape:window-height="704"
     id="namedview3809"
     showgrid="false"
     inkscape:zoom="0.2096"
     inkscape:cx="1250"
     inkscape:cy="1250"
     inkscape:window-x="67"
     inkscape:window-y="27"
     inkscape:window-maximized="1"
     inkscape:current-layer="svg3807"
     inkscape:pagecheckerboard="true" />
  <path
     d="M0 0h192.756v192.756H0V0z"
     id="path3791"
     clip-rule="evenodd"
     fill-rule="evenodd"
     fill="#fff"
     style="fill:none" />
  <path
     fill-rule="evenodd"
     clip-rule="evenodd"
     fill="#fff"
     d="M177.158 96.379l-80.78 80.777-80.779-80.78 80.776-80.777 80.783 80.78z"
     id="path3793" />
  <path
     d="M180.021 99.242L99.242 180.02l-2.864 2.863-2.863-2.863-80.78-80.781-2.863-2.862 2.863-2.863 80.777-80.777 2.863-2.863 2.863 2.863 80.783 80.78 2.863 2.863-2.863 2.862zM96.378 171.43l75.051-75.051-75.054-75.053-75.05 75.05 75.053 75.054z"
     id="path3795" />
  <path
     fill-rule="evenodd"
     clip-rule="evenodd"
     fill="#e6b337"
     d="M31.159 167.609l103.956-66.357-.033-18.721-13.986-4.898 32.986-33.332V30.432L54.662 87.31v18.879h19l-42.478 42.909-.025 18.558v-.047z"
     id="path3797" />
  <path
     d="M37.911 155.299l90.464-57.744-.02-10.265-9.471-3.317-2.551-11.076 29.924-30.237-84.86 48.549v8.244h12.265l4.762 11.473-40.508 40.918-.005 3.455zm100.835-48.365L34.791 173.293c-.658.42-10.366.061-10.366-5.637v-.047l.012-9.256.013-9.256a6.677 6.677 0 0 1 .537-2.553 6.88 6.88 0 0 1 1.437-2.182l31.122-31.439h-2.882c-4.272-.506-6.067-3.139-6.735-6.734V87.31c0-2.251 1.439-4.722 3.394-5.84l99.421-56.878c8.209-.826 9.627 2.23 10.074 5.84.607 1.784 1.285 4.357 1.428 7.217.184 3.678-.52 7.83-3.4 11.388l-25.506 25.77 3.951 1.384c2.451.858 4.521 3.744 4.525 6.34l.035 18.721c.004 2.158-1.285 4.521-3.105 5.682zM24.424 167.656H31.189h-6.765z"
     id="path3799" />
  <path
     fill-rule="evenodd"
     clip-rule="evenodd"
     fill="#e6b337"
     d="M31.214 167.51l103.958-66.358-.031-18.724-13.987-4.895L154.139 44.2V30.329l-99.421 56.88v18.877h18.997L31.24 148.992l-.026 18.559v-.041z"
     id="path3801" />
  <path
     fill-rule="evenodd"
     clip-rule="evenodd"
     fill="#d17239"
     d="M32.05 149.08l103.032-66.549-37.879 21.563L32.05 149.08zM91.843 87.482H56.529l24.938 1.925 10.376-1.925zM107.643 72.183l45.929-40.895-19.074 20.123-26.855 20.772z"
     id="path3803" />
  <path
     fill-rule="evenodd"
     clip-rule="evenodd"
     fill="#f4f1c3"
     d="M31.701 148.965l61.073-61.83-36.947-.057 43.825-3.033-67.951 64.92zM107.109 72.155l7.229-8.973 38.693-31.816-45.922 40.789z"
     id="path3805" />
</svg>
